<svg width="27" height="30" viewBox="0 0 27 30" fill="none" xmlns="http://www.w3.org/2000/svg">
<path d="M25.4667 8.30248C24.7147 7.03348 22.1767 3.83748 21.2837 2.80348C20.8607 2.19248 19.9207 1.48748 19.1687 1.34648C16.3017 0.735481 16.1607 0.641479 15.1267 0.641479C13.3407 0.641479 11.6487 1.15848 11.3197 1.20548L5.53871 2.61548C4.78671 2.80348 3.89371 3.46148 3.65871 4.07248L1.21471 8.86648C0.93271 9.47748 0.83871 10.6995 1.12071 11.4045L7.13671 26.8675C7.60671 28.1365 8.54671 29.3585 13.0587 29.3585C17.5707 29.3585 21.1897 28.1835 21.6127 26.8205L25.9837 10.8405C26.1247 10.0885 26.0777 9.24248 25.4667 8.30248ZM13.3877 28.4185C11.1317 28.4185 8.82871 27.8075 8.82871 26.9615C8.82871 26.3505 11.8367 24.9405 15.4557 24.9405C18.4637 24.9405 20.2497 26.1155 20.2497 26.5385C20.2497 27.3375 16.8187 28.4185 13.3877 28.4185Z" fill="white"/>
</svg>
